<?xml version="1.0" encoding="UTF-8" standalone="no"?>
<!DOCTYPE svg PUBLIC "-//W3C//DTD SVG 20010904//EN"
              "http://www.w3.org/TR/2001/REC-SVG-20010904/DTD/svg10.dtd">

<svg xmlns="http://www.w3.org/2000/svg"
     width="43.1801mm" height="24.2994mm"
     viewBox="0 0 510 287">
  <path id="Sélection"
        fill="none" stroke="black" stroke-width="1"
        d="M 136.00,3.00
           C 139.20,3.00 146.03,2.53 148.61,4.17
             150.34,5.28 151.33,7.25 152.24,9.02
             155.76,15.84 155.76,19.16 152.24,25.98
             151.33,27.75 150.34,29.72 148.61,30.83
             146.03,32.47 139.20,32.00 136.00,32.00
             136.00,32.00 136.00,28.00 136.00,28.00
             136.00,28.00 140.00,28.00 140.00,28.00
             140.00,28.00 140.00,7.00 140.00,7.00
             140.00,7.00 136.00,7.00 136.00,7.00
             136.00,7.00 136.00,3.00 136.00,3.00 Z
           M 158.00,3.00
           C 158.00,3.00 177.00,3.00 177.00,3.00
             177.00,3.00 177.00,7.00 177.00,7.00
             177.00,7.00 163.00,7.00 163.00,7.00
             163.00,7.00 163.00,16.00 163.00,16.00
             163.00,16.00 170.00,16.00 170.00,16.00
             170.00,16.00 170.00,20.00 170.00,20.00
             170.00,20.00 163.00,20.00 163.00,20.00
             163.00,20.00 163.00,28.00 163.00,28.00
             163.00,28.00 177.00,28.00 177.00,28.00
             177.00,28.00 177.00,32.00 177.00,32.00
             177.00,32.00 158.00,32.00 158.00,32.00
             158.00,32.00 158.00,3.00 158.00,3.00 Z
           M 180.16,3.00
           C 186.39,4.12 184.25,6.68 185.61,12.00
             186.46,15.36 188.41,19.90 190.00,23.00
             192.35,14.27 194.91,12.68 195.00,3.00
             195.00,3.00 199.00,3.00 199.00,3.00
             199.00,20.28 195.90,17.55 192.00,32.00
             190.22,31.69 189.14,31.76 187.70,30.40
             185.55,28.38 180.87,15.26 180.16,12.00
             180.16,12.00 180.16,3.00 180.16,3.00 Z
           M 202.00,3.00
           C 202.00,3.00 221.00,3.00 221.00,3.00
             221.00,3.00 221.00,7.00 221.00,7.00
             221.00,7.00 207.00,7.00 207.00,7.00
             207.00,7.00 207.00,16.00 207.00,16.00
             207.00,16.00 214.00,16.00 214.00,16.00
             214.00,16.00 214.00,20.00 214.00,20.00
             214.00,20.00 207.00,20.00 207.00,20.00
             207.00,20.00 207.00,28.00 207.00,28.00
             207.00,28.00 221.00,28.00 221.00,28.00
             221.00,28.00 221.00,32.00 221.00,32.00
             221.00,32.00 202.00,32.00 202.00,32.00
             202.00,32.00 202.00,3.00 202.00,3.00 Z
           M 224.00,3.00
           C 224.00,3.00 227.98,4.60 227.98,4.60
             227.98,4.60 229.00,12.00 229.00,12.00
             229.00,12.00 229.00,28.00 229.00,28.00
             229.00,28.00 243.00,28.00 243.00,28.00
             243.00,28.00 243.00,32.00 243.00,32.00
             243.00,32.00 224.00,32.00 224.00,32.00
             224.00,32.00 224.00,3.00 224.00,3.00 Z
           M 252.39,4.02
           C 254.13,3.37 254.89,2.86 256.90,3.33
             261.63,4.44 265.32,14.57 264.77,19.00
             264.47,21.47 263.36,23.80 262.24,26.00
             260.51,29.39 258.56,32.71 254.10,31.67
             251.17,30.99 250.01,28.45 248.76,26.00
             244.72,18.06 245.76,10.30 252.39,4.02 Z
           M 268.00,3.00
           C 271.36,3.00 282.20,2.39 284.57,4.02
             287.98,6.36 287.98,17.64 284.57,19.98
             282.46,21.43 275.74,21.00 273.00,21.00
             273.00,26.67 274.47,30.86 268.00,32.00
             268.00,32.00 268.00,3.00 268.00,3.00 Z
           M 290.00,3.00
           C 293.36,3.00 304.20,2.39 306.57,4.02
             309.98,6.36 309.98,17.64 306.57,19.98
             304.46,21.43 297.74,21.00 295.00,21.00
             295.00,26.67 296.47,30.86 290.00,32.00
             290.00,32.00 290.00,3.00 290.00,3.00 Z
           M 312.00,3.00
           C 312.00,3.00 331.00,3.00 331.00,3.00
             331.00,3.00 331.00,7.00 331.00,7.00
             331.00,7.00 317.00,7.00 317.00,7.00
             317.00,7.00 317.00,16.00 317.00,16.00
             317.00,16.00 324.00,16.00 324.00,16.00
             324.00,16.00 324.00,20.00 324.00,20.00
             324.00,20.00 317.00,20.00 317.00,20.00
             317.00,20.00 317.00,28.00 317.00,28.00
             317.00,28.00 331.00,28.00 331.00,28.00
             331.00,28.00 331.00,32.00 331.00,32.00
             331.00,32.00 312.00,32.00 312.00,32.00
             312.00,32.00 312.00,3.00 312.00,3.00 Z
           M 334.00,3.00
           C 335.20,3.21 336.22,3.13 337.26,3.99
             339.88,6.16 338.94,16.52 339.00,20.00
             339.05,22.71 339.01,26.29 342.14,27.34
             347.61,29.18 348.93,22.80 349.00,19.00
             349.00,19.00 349.00,3.00 349.00,3.00
             349.00,3.00 353.00,3.00 353.00,3.00
             353.00,3.00 353.00,23.00 353.00,23.00
             352.96,25.37 353.04,28.58 351.26,30.40
             348.72,33.00 337.28,32.84 335.17,29.69
             333.78,27.59 334.00,23.48 334.00,21.00
             334.00,21.00 334.00,3.00 334.00,3.00 Z
           M 356.00,3.00
           C 359.36,3.00 370.20,2.39 372.57,4.02
             374.70,5.49 378.65,15.13 368.00,16.00
             370.90,21.09 374.34,26.10 375.00,32.00
             367.66,30.75 365.22,21.51 361.00,16.00
             361.00,16.00 359.98,30.40 359.98,30.40
             359.98,30.40 356.00,32.00 356.00,32.00
             356.00,32.00 356.00,3.00 356.00,3.00 Z
           M 145.00,7.00
           C 145.00,7.00 144.00,28.00 144.00,28.00
             152.03,20.93 150.69,14.97 145.00,7.00 Z
           M 273.00,17.00
           C 275.19,16.99 278.84,17.21 280.69,15.98
             283.61,14.02 283.46,9.17 279.85,7.60
             278.20,6.88 274.86,7.01 273.00,7.00
             273.00,7.00 273.00,17.00 273.00,17.00 Z
           M 295.00,17.00
           C 297.19,16.99 300.84,17.21 302.69,15.98
             305.61,14.02 305.46,9.17 301.85,7.60
             300.20,6.88 296.86,7.01 295.00,7.00
             295.00,7.00 295.00,17.00 295.00,17.00 Z
           M 371.00,9.00
           C 371.00,9.00 361.00,7.00 361.00,7.00
             361.00,7.00 361.00,12.00 361.00,12.00
             365.76,11.98 367.43,12.52 371.00,9.00 Z
           M 256.00,8.00
           C 249.75,14.26 249.75,20.74 256.00,27.00
             260.96,18.24 260.96,16.76 256.00,8.00 Z
           M 118.00,16.00
           C 120.28,16.56 124.87,17.05 126.40,18.60
             129.20,21.42 127.72,26.26 125.69,29.00
             125.69,29.00 106.01,50.00 106.01,50.00
             106.01,50.00 75.83,83.00 75.83,83.00
             75.83,83.00 40.72,121.00 40.72,121.00
             40.72,121.00 25.99,137.00 25.99,137.00
             24.19,138.85 20.20,142.29 20.20,145.00
             20.20,147.71 24.19,151.15 25.99,153.00
             25.99,153.00 41.58,170.00 41.58,170.00
             41.58,170.00 74.91,206.00 74.91,206.00
             74.91,206.00 108.96,243.00 108.96,243.00
             112.19,246.38 124.86,259.81 126.15,263.00
             128.36,268.50 125.67,274.45 119.00,272.97
             114.94,272.08 106.78,261.47 103.72,258.00
             103.72,258.00 69.58,221.00 69.58,221.00
             69.58,221.00 49.09,199.00 49.09,199.00
             49.09,199.00 20.83,168.00 20.83,168.00
             16.69,163.42 3.79,151.61 3.16,146.00
             2.57,140.72 6.58,137.59 9.72,134.00
             9.72,134.00 31.91,110.00 31.91,110.00
             31.91,110.00 85.09,52.00 85.09,52.00
             85.09,52.00 118.00,16.00 118.00,16.00 Z
           M 384.31,18.02
           C 392.41,14.98 397.90,22.55 402.83,28.00
             402.83,28.00 441.28,70.00 441.28,70.00
             441.28,70.00 489.17,122.00 489.17,122.00
             493.31,126.58 506.21,138.39 506.84,144.00
             507.43,149.28 503.42,152.41 500.28,156.00
             500.28,156.00 480.01,178.00 480.01,178.00
             480.01,178.00 449.83,211.00 449.83,211.00
             449.83,211.00 418.17,245.00 418.17,245.00
             418.17,245.00 406.28,258.00 406.28,258.00
             406.28,258.00 396.83,268.94 396.83,268.94
             390.81,275.03 382.42,274.25 383.15,266.00
             383.59,261.01 387.71,257.37 391.00,254.00
             391.00,254.00 405.91,238.00 405.91,238.00
             405.91,238.00 446.17,194.00 446.17,194.00
             446.17,194.00 466.72,172.00 466.72,172.00
             466.72,172.00 484.01,153.00 484.01,153.00
             485.81,151.15 489.80,147.71 489.80,145.00
             489.80,142.29 485.81,138.85 484.01,137.00
             484.01,137.00 469.28,121.00 469.28,121.00
             469.28,121.00 435.09,84.00 435.09,84.00
             435.09,84.00 404.96,51.00 404.96,51.00
             404.96,51.00 384.31,29.00 384.31,29.00
             381.53,25.23 381.06,21.52 384.31,18.02 Z
           M 361.28,38.02
           C 370.22,34.72 371.57,40.61 370.83,48.00
             370.83,48.00 362.79,83.00 362.79,83.00
             362.79,83.00 348.88,140.00 348.88,140.00
             348.88,140.00 331.37,213.00 331.37,213.00
             331.37,213.00 323.63,245.00 323.63,245.00
             322.78,248.39 321.77,255.07 318.72,256.98
             312.83,260.67 308.78,255.79 309.09,250.00
             309.09,250.00 317.37,214.00 317.37,214.00
             317.37,214.00 348.12,87.00 348.12,87.00
             348.12,87.00 355.54,56.00 355.54,56.00
             356.67,50.02 356.66,42.45 361.28,38.02 Z
           M 122.00,66.63
           C 122.00,66.63 167.00,66.00 167.00,66.00
             170.03,66.02 173.21,65.85 175.79,67.74
             181.20,71.71 181.20,81.29 175.79,85.26
             173.02,87.29 169.26,86.99 166.00,87.00
             166.00,87.00 137.00,87.00 137.00,87.00
             132.68,87.06 128.70,87.34 125.33,90.42
             122.13,93.33 118.87,100.93 116.58,105.00
             116.58,105.00 104.22,128.00 104.22,128.00
             101.05,134.00 98.15,137.91 97.53,145.00
             96.97,151.37 100.00,157.48 102.75,163.00
             102.75,163.00 116.78,190.00 116.78,190.00
             118.76,193.74 122.90,201.99 126.10,204.28
             129.95,207.02 135.48,206.99 140.00,207.21
             140.00,207.21 172.00,207.21 172.00,207.21
             177.11,208.84 179.83,213.90 179.14,219.00
             178.02,227.41 171.85,227.99 165.00,228.00
             165.00,228.00 129.00,228.00 129.00,228.00
             106.94,227.73 101.94,208.75 93.00,193.00
             93.00,193.00 84.75,177.00 84.75,177.00
             76.47,160.43 71.60,149.76 77.75,131.00
             77.75,131.00 93.75,100.00 93.75,100.00
             100.88,85.84 106.01,72.53 122.00,66.63 Z
           M 199.00,228.00
           C 199.00,228.00 199.00,103.00 199.00,103.00
             199.00,103.00 199.00,83.00 199.00,83.00
             199.00,80.10 198.74,74.55 199.74,72.02
             201.64,67.19 206.17,65.64 211.00,66.11
             219.50,66.94 219.99,73.17 220.00,80.00
             220.00,80.00 220.00,207.00 220.00,207.00
             220.00,207.00 289.00,207.00 289.00,207.00
             292.34,207.01 296.00,206.73 298.89,208.74
             304.41,212.57 304.41,222.43 298.89,226.26
             296.00,228.27 292.34,227.99 289.00,228.00
             289.00,228.00 199.00,228.00 199.00,228.00 Z
           M 137.00,264.00
           C 137.00,264.00 140.00,264.00 140.00,264.00
             140.00,264.00 140.00,280.00 140.00,280.00
             140.00,280.00 142.00,280.00 142.00,280.00
             142.00,280.00 142.00,271.00 142.00,271.00
             142.00,271.00 145.00,271.00 145.00,271.00
             145.00,271.00 145.00,280.00 145.00,280.00
             145.00,280.00 147.00,280.00 147.00,280.00
             147.00,280.00 147.00,264.00 147.00,264.00
             147.00,264.00 150.00,264.00 150.00,264.00
             150.00,279.37 152.18,284.79 142.02,283.94
             140.53,283.82 139.03,283.67 138.02,282.40
             136.33,280.27 137.00,267.36 137.00,264.00 Z
           M 151.00,264.00
           C 151.00,264.00 164.00,264.00 164.00,264.00
             164.00,264.00 164.00,267.00 164.00,267.00
             164.00,267.00 154.00,267.00 154.00,267.00
             154.00,267.00 154.00,273.00 154.00,273.00
             154.00,273.00 159.00,273.00 159.00,273.00
             159.00,273.00 159.00,276.00 159.00,276.00
             159.00,276.00 154.00,276.00 154.00,276.00
             154.00,276.00 154.00,281.00 154.00,281.00
             154.00,281.00 164.00,281.00 164.00,281.00
             164.00,281.00 164.00,284.00 164.00,284.00
             164.00,284.00 151.00,284.00 151.00,284.00
             151.00,284.00 151.00,264.00 151.00,264.00 Z
           M 165.00,264.00
           C 167.65,264.00 173.59,263.62 175.69,265.02
             178.91,267.17 178.89,280.84 175.69,282.98
             173.59,284.38 167.65,284.00 165.00,284.00
             165.00,284.00 165.00,264.00 165.00,264.00 Z
           M 226.00,264.00
           C 227.34,264.47 227.99,264.37 229.07,265.59
             231.40,268.22 233.82,280.27 234.00,284.00
             234.00,284.00 227.10,280.89 227.10,280.89
             227.10,280.89 221.00,284.00 221.00,284.00
             221.00,284.00 226.00,264.00 226.00,264.00 Z
           M 235.00,264.00
           C 237.54,264.00 244.55,263.56 246.40,265.02
             248.56,266.73 248.56,273.27 246.40,274.98
             244.73,276.30 240.14,276.00 238.00,276.00
             238.00,276.00 238.00,284.00 238.00,284.00
             238.00,284.00 235.00,284.00 235.00,284.00
             235.00,284.00 235.00,264.00 235.00,264.00 Z
           M 249.00,264.00
           C 251.54,264.00 258.55,263.56 260.40,265.02
             262.56,266.73 262.56,273.27 260.40,274.98
             258.73,276.30 254.14,276.00 252.00,276.00
             252.00,276.00 252.00,284.00 252.00,284.00
             252.00,284.00 249.00,284.00 249.00,284.00
             249.00,284.00 249.00,264.00 249.00,264.00 Z
           M 263.00,264.00
           C 263.00,264.00 266.00,264.00 266.00,264.00
             266.00,264.00 266.00,281.00 266.00,281.00
             266.00,281.00 276.00,281.00 276.00,281.00
             276.00,281.00 276.00,284.00 276.00,284.00
             276.00,284.00 263.00,284.00 263.00,284.00
             263.00,284.00 263.00,264.00 263.00,264.00 Z
           M 277.00,264.00
           C 277.00,264.00 290.00,264.00 290.00,264.00
             290.00,264.00 290.00,267.00 290.00,267.00
             290.00,267.00 285.00,267.00 285.00,267.00
             285.00,267.00 285.00,281.00 285.00,281.00
             285.00,281.00 290.00,281.00 290.00,281.00
             290.00,281.00 290.00,284.00 290.00,284.00
             290.00,284.00 277.00,284.00 277.00,284.00
             277.00,284.00 277.00,281.00 277.00,281.00
             277.00,281.00 282.00,281.00 282.00,281.00
             282.00,281.00 282.00,267.00 282.00,267.00
             282.00,267.00 277.00,267.00 277.00,267.00
             277.00,267.00 277.00,264.00 277.00,264.00 Z
           M 304.00,284.00
           C 301.08,284.00 296.94,284.45 294.64,282.40
             286.52,275.19 293.97,257.88 305.00,266.00
             301.96,266.97 298.87,267.37 296.86,270.15
             292.66,275.94 298.19,280.53 304.00,281.00
             304.00,281.00 304.00,284.00 304.00,284.00 Z
           M 310.00,264.00
           C 311.34,264.47 311.99,264.37 313.07,265.59
             315.40,268.22 317.82,280.27 318.00,284.00
             318.00,284.00 311.10,280.89 311.10,280.89
             311.10,280.89 305.00,284.00 305.00,284.00
             305.00,284.00 310.00,264.00 310.00,264.00 Z
           M 319.00,264.00
           C 319.00,264.00 332.00,264.00 332.00,264.00
             332.00,264.00 332.00,269.00 332.00,269.00
             332.00,269.00 327.00,267.00 327.00,267.00
             327.00,267.00 327.00,284.00 327.00,284.00
             327.00,284.00 324.00,284.00 324.00,284.00
             324.00,284.00 324.00,267.00 324.00,267.00
             324.00,267.00 319.00,269.00 319.00,269.00
             319.00,269.00 319.00,264.00 319.00,264.00 Z
           M 333.00,264.00
           C 333.00,264.00 346.00,264.00 346.00,264.00
             346.00,264.00 346.00,267.00 346.00,267.00
             346.00,267.00 341.00,267.00 341.00,267.00
             341.00,267.00 341.00,281.00 341.00,281.00
             341.00,281.00 346.00,281.00 346.00,281.00
             346.00,281.00 346.00,284.00 346.00,284.00
             346.00,284.00 333.00,284.00 333.00,284.00
             333.00,284.00 333.00,281.00 333.00,281.00
             333.00,281.00 338.00,281.00 338.00,281.00
             338.00,281.00 338.00,267.00 338.00,267.00
             338.00,267.00 333.00,267.00 333.00,267.00
             333.00,267.00 333.00,264.00 333.00,264.00 Z
           M 351.21,265.04
           C 363.56,261.54 361.67,286.39 352.10,283.34
             346.55,281.58 344.68,270.65 351.21,265.04 Z
           M 361.00,264.00
           C 367.63,265.14 368.38,270.44 371.00,276.00
             371.00,276.00 371.00,264.00 371.00,264.00
             371.00,264.00 374.00,264.00 374.00,264.00
             374.00,264.00 374.00,284.00 374.00,284.00
             367.34,282.86 366.65,276.63 364.00,271.00
             364.00,271.00 364.00,284.00 364.00,284.00
             364.00,284.00 361.00,284.00 361.00,284.00
             361.00,284.00 361.00,264.00 361.00,264.00 Z
           M 175.00,269.00
           C 175.00,269.00 168.00,267.00 168.00,267.00
             168.00,267.00 168.00,273.00 168.00,273.00
             168.00,273.00 175.00,271.00 175.00,271.00
             175.00,271.00 175.00,269.00 175.00,269.00 Z
           M 195.00,275.00
           C 194.09,273.77 193.65,273.59 193.31,271.95
             191.61,263.42 205.35,264.67 203.35,271.95
             202.89,273.67 201.94,274.66 201.00,276.00
             201.00,276.00 206.00,277.00 206.00,277.00
             206.00,277.00 206.00,284.00 206.00,284.00
             202.16,283.73 194.48,285.29 193.33,280.87
             192.67,278.33 193.63,276.92 195.00,275.00 Z
           M 238.00,273.00
           C 246.82,272.69 246.82,267.31 238.00,267.00
             238.00,267.00 238.00,273.00 238.00,273.00 Z
           M 252.00,273.00
           C 260.82,272.69 260.82,267.31 252.00,267.00
             252.00,267.00 252.00,273.00 252.00,273.00 Z
           M 354.00,268.00
           C 349.62,272.46 349.62,275.54 354.00,280.00
             357.00,274.38 357.00,273.62 354.00,268.00 Z
           M 199.00,269.00
           C 199.00,269.00 196.00,270.00 196.00,270.00
             196.00,270.00 199.00,273.00 199.00,273.00
             199.00,273.00 200.00,270.00 200.00,270.00
             200.00,270.00 199.00,269.00 199.00,269.00 Z
           M 228.00,272.00
           C 228.00,272.00 226.00,277.00 226.00,277.00
             226.00,277.00 229.00,277.00 229.00,277.00
             229.00,277.00 228.00,272.00 228.00,272.00 Z
           M 312.00,272.00
           C 312.00,272.00 310.00,277.00 310.00,277.00
             310.00,277.00 313.00,277.00 313.00,277.00
             313.00,277.00 312.00,272.00 312.00,272.00 Z
           M 175.00,278.00
           C 175.00,278.00 168.00,276.00 168.00,276.00
             168.00,276.00 168.00,281.00 168.00,281.00
             171.88,280.68 172.20,280.76 175.00,278.00 Z
           M 198.00,278.00
           C 198.00,278.00 196.00,279.00 196.00,279.00
             196.00,279.00 199.00,281.00 199.00,281.00
             199.00,281.00 198.00,278.00 198.00,278.00 Z" />
</svg>
